<svg width="1080" height="1080" viewBox="0 0 1080 1080" fill="none" xmlns="http://www.w3.org/2000/svg">
<g filter="url(#filter0_ii_1_2)">
<g clip-path="url(#clip0_1_2)">
<rect width="1080" height="1080" rx="268" fill="#F3E3D0"/>
<g filter="url(#filter1_d_1_2)">
<rect width="1080" height="1080" fill="url(#paint0_linear_1_2)" shape-rendering="crispEdges"/>
</g>
<g filter="url(#filter2_dii_1_2)">
<path d="M900.604 290.018C928.551 357.865 914.972 438.745 859.722 493.741C798.891 554.292 707.144 563.575 635.938 523.175L584.26 579.351L620.953 616.36L642.983 594.432C654.232 583.205 672.46 583.247 683.658 594.526L861.476 774.987C872.703 786.237 872.661 804.465 861.382 815.663L779.844 896.826C768.594 908.053 750.366 908.011 739.168 896.732L561.35 716.271C550.123 705.021 550.165 686.793 561.444 675.595L581.564 655.568L546.596 620.35L299.49 889.066C276.962 911.491 240.535 911.407 218.14 888.878L197.849 868.494C175.424 845.965 175.508 809.539 198.036 787.143L479.38 552.617L293.314 365.191L234.411 365.026L166.5 255.268L221.486 200.448L333.419 269.309L334.019 326.983L522.248 516.817L577.243 470.993C523.754 397.724 529.589 294.701 595.853 228.741C650.839 174.008 731.342 160.567 798.885 188.299L677.756 307.204L779.24 409.156L900.604 290.018ZM265.431 815.988C254.233 804.738 236.034 804.696 224.755 815.894C213.476 827.121 213.434 845.32 224.661 856.599C235.888 867.849 254.087 867.891 265.337 856.693C276.616 845.436 276.658 827.238 265.431 815.988Z" fill="white"/>
</g>
</g>
</g>
<defs>
<filter id="filter0_ii_1_2" x="-8" y="-8" width="1096" height="1096" filterUnits="userSpaceOnUse" color-interpolation-filters="sRGB">
<feFlood flood-opacity="0" result="BackgroundImageFix"/>
<feBlend mode="normal" in="SourceGraphic" in2="BackgroundImageFix" result="shape"/>
<feColorMatrix in="SourceAlpha" type="matrix" values="0 0 0 0 0 0 0 0 0 0 0 0 0 0 0 0 0 0 127 0" result="hardAlpha"/>
<feOffset dx="8" dy="-8"/>
<feGaussianBlur stdDeviation="8"/>
<feComposite in2="hardAlpha" operator="arithmetic" k2="-1" k3="1"/>
<feColorMatrix type="matrix" values="0 0 0 0 0 0 0 0 0 0 0 0 0 0 0 0 0 0 0.25 0"/>
<feBlend mode="normal" in2="shape" result="effect1_innerShadow_1_2"/>
<feColorMatrix in="SourceAlpha" type="matrix" values="0 0 0 0 0 0 0 0 0 0 0 0 0 0 0 0 0 0 127 0" result="hardAlpha"/>
<feOffset dx="-8" dy="8"/>
<feGaussianBlur stdDeviation="8"/>
<feComposite in2="hardAlpha" operator="arithmetic" k2="-1" k3="1"/>
<feColorMatrix type="matrix" values="0 0 0 0 1 0 0 0 0 1 0 0 0 0 1 0 0 0 0.25 0"/>
<feBlend mode="normal" in2="effect1_innerShadow_1_2" result="effect2_innerShadow_1_2"/>
</filter>
<filter id="filter1_d_1_2" x="-4" y="0" width="1088" height="1088" filterUnits="userSpaceOnUse" color-interpolation-filters="sRGB">
<feFlood flood-opacity="0" result="BackgroundImageFix"/>
<feColorMatrix in="SourceAlpha" type="matrix" values="0 0 0 0 0 0 0 0 0 0 0 0 0 0 0 0 0 0 127 0" result="hardAlpha"/>
<feOffset dy="4"/>
<feGaussianBlur stdDeviation="2"/>
<feComposite in2="hardAlpha" operator="out"/>
<feColorMatrix type="matrix" values="0 0 0 0 0 0 0 0 0 0 0 0 0 0 0 0 0 0 0.25 0"/>
<feBlend mode="normal" in2="BackgroundImageFix" result="effect1_dropShadow_1_2"/>
<feBlend mode="normal" in="SourceGraphic" in2="effect1_dropShadow_1_2" result="shape"/>
</filter>
<filter id="filter2_dii_1_2" x="136.5" y="164.295" width="788.204" height="771.535" filterUnits="userSpaceOnUse" color-interpolation-filters="sRGB">
<feFlood flood-opacity="0" result="BackgroundImageFix"/>
<feColorMatrix in="SourceAlpha" type="matrix" values="0 0 0 0 0 0 0 0 0 0 0 0 0 0 0 0 0 0 127 0" result="hardAlpha"/>
<feOffset dx="-10" dy="10"/>
<feGaussianBlur stdDeviation="10"/>
<feComposite in2="hardAlpha" operator="out"/>
<feColorMatrix type="matrix" values="0 0 0 0 0 0 0 0 0 0 0 0 0 0 0 0 0 0 0.25 0"/>
<feBlend mode="normal" in2="BackgroundImageFix" result="effect1_dropShadow_1_2"/>
<feBlend mode="normal" in="SourceGraphic" in2="effect1_dropShadow_1_2" result="shape"/>
<feColorMatrix in="SourceAlpha" type="matrix" values="0 0 0 0 0 0 0 0 0 0 0 0 0 0 0 0 0 0 127 0" result="hardAlpha"/>
<feOffset dx="8" dy="-8"/>
<feGaussianBlur stdDeviation="8"/>
<feComposite in2="hardAlpha" operator="arithmetic" k2="-1" k3="1"/>
<feColorMatrix type="matrix" values="0 0 0 0 0 0 0 0 0 0 0 0 0 0 0 0 0 0 0.25 0"/>
<feBlend mode="normal" in2="shape" result="effect2_innerShadow_1_2"/>
<feColorMatrix in="SourceAlpha" type="matrix" values="0 0 0 0 0 0 0 0 0 0 0 0 0 0 0 0 0 0 127 0" result="hardAlpha"/>
<feOffset dx="-8" dy="8"/>
<feGaussianBlur stdDeviation="8"/>
<feComposite in2="hardAlpha" operator="arithmetic" k2="-1" k3="1"/>
<feColorMatrix type="matrix" values="0 0 0 0 1 0 0 0 0 1 0 0 0 0 1 0 0 0 0.25 0"/>
<feBlend mode="normal" in2="effect2_innerShadow_1_2" result="effect3_innerShadow_1_2"/>
</filter>
<linearGradient id="paint0_linear_1_2" x1="846.5" y1="130.5" x2="50" y2="1222.5" gradientUnits="userSpaceOnUse">
<stop stop-color="#AACDDC"/>
<stop offset="1" stop-color="#81A6C6" stop-opacity="0.98"/>
</linearGradient>
<clipPath id="clip0_1_2">
<rect width="1080" height="1080" rx="268" fill="white"/>
</clipPath>
</defs>
</svg>
